<?xml version="1.0" encoding="UTF-8"?>
<svg id="Layer_1" data-name="Layer 1" xmlns="http://www.w3.org/2000/svg" viewBox="0 0 512 512">
  <defs>
    <style>
      .cls-1 {
        fill: #471819;
      }

      .cls-2 {
        fill: #0e1218;
      }

      .cls-3 {
        fill: #d8cbc7;
      }

      .cls-4 {
        fill: #fd3b28;
      }

      .cls-5 {
        fill: #911614;
      }

      .cls-6 {
        fill: #ffe9e1;
      }

      .cls-7 {
        fill: #fefefe;
      }

      .cls-8 {
        fill: #fc9f83;
      }

      .cls-9 {
        fill: #dbd7ce;
      }
    </style>
  </defs>
  <rect class="cls-6" x="0" y="0" width="512" height="512" rx="45" ry="45"/>
  <g>
    <ellipse class="cls-3" cx="256" cy="375.19" rx="177.6" ry="15.81"/>
    <g>
      <path class="cls-2" d="M156.58,347.14c-10.83.16-21.19,5.8-26.08,15.59-1.6,3.19-2.7,10.66-6.93,11.1-4.55.47-7.68-6.85-8.56-10.46-3.17-13.03,1.57-28.84,11.6-37.75-13.29.15-20.08,13.81-23.58,24.9-1.26,3.99-2.91,15.85-4.74,17.99-1.37,1.6-3.68,1.84-5.62,1.39-4.65-1.09-8.61-12.17-9.71-16.43-5.38-20.74.74-42.4,17.5-55.9-6.87.16-13.34,5.42-17.71,10.34-7.49,8.42-7.81,13.87-12.32,23.09-3.49,7.14-9.07,7.32-12.18-.22-4.21-10.23-2.97-25.87.93-36.08,7.1-18.57,23.02-29.65,42.9-30.36-1.35-2.47-3.43-4.38-5.02-6.68-19.74-28.56-10.89-72.86,24.21-83.89,3.78-1.19,12.3-1.68,14.55-2.88,2.08-1.11,6-6.6,8.2-8.68,12.32-11.63,27.42-20.42,42.95-27.04l.09-2.64c-29.18-1.77-38.32-40.46-13.08-55.3,27.08-15.92,57.58,16.34,39.21,43.02-.63.92-5.63,6.13-4.88,6.82,5.32-1.02,10.48-3,15.78-4.1,25.65-5.35,53.84-3.89,78.72,4.11.84-.44.06-.95-.26-1.37-2.29-3.07-5.09-4.67-7.19-8.61-15.4-28.94,19.41-57.63,44.77-37.15,20.7,16.72,10.28,49.92-15.8,52.57l.25,2.2c19.8,8.16,38.47,19.98,52.6,36.19,42.48,2.88,61,50.24,39.43,84.67-1.4,2.23-4.49,5.39-5.4,7.13-.29.55-.34,1.03-.27,1.63,10.17.97,20.27,4.13,28.07,10.88,12.98,11.24,18.51,29.14,17.14,46.03-.45,5.48-4.11,20.13-11.99,13.64-3.02-2.48-5.74-12.24-8.06-16.45-4.87-8.83-14-19.71-24.6-20.87,16.89,14.47,23.28,37.3,16.48,58.69-1.5,4.72-6.89,17.7-13.49,13.2-3.03-2.07-3.77-12.27-4.9-16.34-3.35-12.04-10.63-27.08-24.78-28.06,10.51,9.51,15.54,25.63,11.59,39.37-.99,3.44-3.85,9.41-8.05,9.41-4.96,0-5.19-5.82-6.71-9.12-4.64-10.05-12.22-15.79-23.24-17.61-.84.29.26,1.23.26,1.37v12.53c0,9.35-8.97,18.34-18.23,18.81l-166.7-.02c-7.37.03-17.16-8.66-17.16-16.06v-16.61ZM184.77,79.29c-24.33,3.3-25.29,42.37,0,46.02,36.13,5.21,36.17-50.92,0-46.02ZM317.13,79.29c-23.66,3.21-25.87,41.38-.33,45.8,36.1,6.25,36.95-50.77.33-45.8ZM298.75,138.52c.16-1.1,2.35-5.14,1.61-5.97-28.75-8.6-60.18-8.64-88.81.31-.32,1.51,1.47,3.81,1.68,5.11.46,2.92-.5,5.87-3.97,4.82-2.07-.63-5.63-10.58-5.83-12.99l-9.8,2.73c-.24.27,1.58,6.18,1.92,7.07.81,2.12,4.41,6.54,2.12,8.14-2.67,1.86-4.8-.56-6.22-2.68-.71-1.06-1.26-2.55-1.69-3.77-.67-.48-6.65,2.24-7.77,2.76-10.72,4.94-23.77,13.58-32.51,21.41-2.09,1.87-3.88,4.13-5.97,6.02,1.96.39,4.02.49,5.99.81,11.4,1.89,23.33,7.92,28.69,18.54,2.02.21,3.88-.54,5.87-.59,42.89-1.11,85.95.88,128.85.03.25.73,1.05.49,1.63.54.77.07,1.34-.03,2.18.25,3.61,1.18,20.69,18.53,25.05,22.37,3.09,2.72,6.36,5.28,9.43,8.04,1.83.76,4.62-.59,6.66-.69,2.58-.13,7.64.5,9.69-.12,1.4-.42,2.94-4.13,2.32-5.33-1.25-2.41-12.19-4.22-13.67-8.7-.5-1.52.06-3.48-1.35-4.65-6.81-2.39-27.48-.7-20.05-12.99,5.25-8.69,18.52-14.93,28.23-16.71,2.09-.38,4.46-.29,6.53-.81-4.16-4.17-8.68-8.09-13.37-11.69-7.48-5.75-16.11-11.06-24.57-15.2-2.96-1.45-6.15-2.57-9.16-3.91-.28,0-2.02,4.27-2.48,4.92-1.5,2.16-5.18,4.53-6.84,1.08-.93-1.94,5.38-10.13,4.62-13.27l-8.97-3.6c-1.19-.19-.64.15-.78.81-.67,2.98-2.7,12.26-6.26,12.29-2.88.03-3.37-1.92-3.01-4.4ZM93.39,226.76c2.13,41.03,49.67,60.89,74.85,26.1,2.47-3.42,7.89-13.89,6.85-17.93-.32-1.26-2.98-1.36-4.16-1.56-3.67-.63-10.34.02-12.89-.73-.92-.27-1.43-1.14-1.47-2.07l-.31-3.88c-9.04-2.1-19.81-2-28.34-5.88-.64-.29-.98.26-.77-1.14l8.16-1.91c-4.27-6.94,8.63-11.25,13.63-12.81-1.23-1.41-1.6-3.68-.81-5.43,1.3-2.88,15.49-6.93,19.05-7.64.29-.11.28-.28.28-.54l3.26-.81c-4.13-6.3-12.78-10.36-20.04-12.1-32.71-7.87-59.03,15.2-57.31,48.32ZM418.58,226.76c1.22-29.78-18.74-51.87-49.32-49.59-9.01.67-23.81,6.3-28.86,14.18-.25.39-.63.96.04,1.11.18.11.54-.1.78,0,4.11,1.63,21.37,2.95,22.78,7.46.6,1.92-.29,3.35-.74,5.08,5.83,2.98,16.52,4.73,13.37,13.6l8.17,1.1-4.07,2.19c-8.36,2.65-17.12,3.95-25.88,4.35.55,1.75.74,3.15,0,4.9-.16.08-.38.9-.76,1.12-1.36.78-13,.87-15.88,1.03-.54.03-1.28-.15-1.33.57,3.21,29.66,36.08,47.09,61.72,29.86,12.57-8.45,19.37-21.91,19.98-36.94ZM332.52,245.28c-1.04-3.53-2.21-7.17-2.18-10.9-6.28-.94-21.45,3.26-22.84-5.75-.36-2.36-.49-7.11-.6-9.75-.31-7.33.27-14.75.02-22.08h-133.18c-1.79,0-9.37,3.26-9.96,5.29l-.11,25.22h8.44c1.15,0,5.71,1.68,6.78,2.48,5.21,3.94,1.85,13.62.03,18.76-.06.16.06.39,0,.54-.05.14-.45.31-.54.54-.31.77-.78,2.14-1.09,2.72-.05.09-.38.25-.54.54-.08.14.08.41,0,.54l-1.63,2.18c-.63.9-1.49,1.77-2.18,2.72-.38.53-.72,1.09-1.09,1.63-1.81,1.59-3.24,3.2-4.9,4.9-.34.35-.74.76-1.09,1.09-.12.11-.69.15-1.09.54-.14.14-.64.16-.81.53l-.27,95.6c.61,6.07,5.13,10.1,11.14,10.65h165.09c5.77-.52,9.93-4.59,11.16-10.09l-.56-94.52c-.04-.79-2.06-1.63-2.72-2.18-.46-.38-1.01-.48-1.09-.54-.19-.17-.35-.37-.54-.54-.11-.1-.67-.7-1.09-1.09-1.01-.94-2.95-2.83-3.81-3.81-.28-.32-.62-1.06-1.09-1.63-.38-.46-.92-.87-1.09-1.09-.1-.13-.23-.64-.54-1.09-.37-.53-.74-1.08-1.09-1.63-.14-.22-.44-.37-.54-.54-.19-.33-.24-1.08-.54-1.63-.44-.79-.96-1.56-1.63-2.18-.06-.16.06-.39,0-.54-.15-.36-.53-.5-.54-.54-.06-.16.06-.39,0-.54-.12-.31-.52-.47-.54-.54-.06-.16.06-.38,0-.54-.19-.52-.53-1.03-.54-1.09-.18-.53-.39-1.11-.54-1.63ZM314,197.35v29.14c1.05,1.12,2.62,1.26,4.06,1.38,9.78.82,19.88-1.32,29.71-.57l-33.77-29.95ZM157.12,221.86c-.63-5.33-.24-10.74-.54-16.08-.03-.61.36-1.49-.54-1.35-.47,6.83-9.54,7.29-13.93,10.89l-.17.72c1.49,3.49,1.79,4.3,5.72,4.67.8.07,1.63-.45,2.51-.34,2.35.3,4.66.95,6.95,1.49ZM398.27,285.97c.54-.37,3.59-2.97,4.26-3.64,3.92-3.9,7.34-11.22,3.8-16.34-1.83,2.86-6.35,4.17-8.4,6.29-3.26,3.36-4.84,7.99-9.59,12.2-1.1.97-4.23,2.2-3.25,3.29,6.34.65,7.23,2.25,13.18-1.8ZM127.16,286.68c-5.82-3.13-10.11-8.6-13.11-14.4l-8.68-5.5c-4.42,9.07,5.21,18.35,12.85,22.06l8.94-2.16ZM94.48,271.43c-5.22,1.19-10.88,2.18-14.61,6.37-.64,2.08.43,3,1,4.52,1.94,5.26,5.49,9.01,11.01,10.51,6.61,1.8,11.36-.63,17.86-1.25.35-1.28-.33-.92-.7-1.24-3.24-2.88-6.23-5.01-8.31-9.08-1.65-3.23-2.75-7.29-2.43-10.91-.28-.32-3.2.95-3.81,1.09ZM431.11,282.32c.58-1.82,1.85-3.86.3-5.48-.83-.86-5.35-3.12-6.69-3.65-2.58-1.02-4.7-1.16-7.22-1.76-1.05-.25-2.41-1.38-3.81-1.09.14,5.38-1.6,10.26-4.92,14.42-1.44,1.81-4.3,3.72-5.44,5.46-.36.55-.87.41,0,1.1,10.68,3.81,23.79,3.55,27.79-9ZM156.58,292.67v-21.24c-2.61,1.37-5.38,2.61-8.19,3.52-1.8.58-8.08,2.47-9.51,2.47h-11.71c7.24,8.81,18.65,12.64,29.41,15.25ZM384.54,277.42c-3.6.17-7.28,0-10.89,0-1.5,0-7.06-1.51-8.86-2.04-2.54-.74-4.85-1.73-7.21-2.87v19.61c10.11-2.1,20.54-6.92,27.78-14.44.13-1.67-.56-.28-.81-.27ZM77.6,287.77c-.94-1.61-1.42-4.33-2.45-5.99-11.9,11.77-15.28,29.2-11.71,45.21,3,.37,2.91-3.98,3.81-5.99,4.29-9.64,10.83-18.2,19.06-24.78-3.01-2.29-6.77-5.13-8.71-8.44ZM434.38,287.77c-.52,1.02-2.02,2.49-2.71,3.55l-5.99,5.42c8.5,6.84,14.98,16.06,19.6,25.89.61,1.29.78,3.43,1.51,4.75.27.5.42,1.45,1.21.69.29-.28,1.55-6.9,1.63-7.91.77-8.88-1.19-19.52-5.14-27.52-1.96-3.96-5.01-7.2-7.39-10.87l-1.07.32c-.17,1.73-.86,4.16-1.64,5.67ZM128.8,292.67c-1.85.07-3.6.25-5.42.57-.13,2.25-.16,4.33.51,6.51,1.33,4.29,7.99,8.88,11.99,10.61,1.33.57,8.59,3,9.53,3h11.17v-13.89c-6.62-2.92-15.28-6.85-22.58-7.37-1.46-.1-3.98-.34-5.2.56ZM379.91,292.12c-8.26-.39-14.58,4.08-22.33,5.99v15.25h7.9c6.86,0,20.32-6.66,22.61-13.62.67-2.04.72-3.78.49-5.94-.32-.36-7.62-1.64-8.66-1.69ZM400.61,298.66c-.05-.03.14-.85-.36-1.11-1.83-.98-4.32-1.1-6.18-2.15.9,7-3.18,13.3-8.46,17.42-2.22,1.73-4.89,2.41-6.79,4.36,11.73,5.55,23.42,6.83,32.14-4.35.75-.96,2.25-2.63,2.47-3.77.31-1.66-6.06-7.18-7.66-8.21-1.23-.79-3.82-1.5-5.16-2.19ZM113,297.57c-.59.23-1.45.15-2.38.6-2.59,1.24-10.92,6.88-12.08,9.22-.69,1.39,1.75,3.84,2.48,4.89,2.17,3.1,3.58,4.83,7.13,6.76,9.46,5.17,16.28.94,25.55-1.87l-8.12-5.21c-4.43-3.5-8.64-10.32-7.67-16.02-2.04-.5-3.53,1.08-4.9,1.63ZM98.29,317.73c-.52-.62-2.47-4.88-3-4.89-9.7,13.65-10.77,34.86-1.63,49.01.68-1.23.52-3.07.81-4.35,2.12-9.13,5.67-20.55,11.44-28.05,1.02-1.32,3.93-2.79,4.35-3.82s-.41-.7-.75-.86c-3.48-1.54-8.76-4.12-11.23-7.03ZM412.59,318.27c-3.09,3.19-7.18,5.03-10.88,7.35,8.09,7.2,11.34,17.57,14.7,27.51l1.09,8.72c2.51-1.98,3.9-6.09,4.74-9.15,3.82-13.96,1.37-27.29-5.29-39.88-.28-.21-3.76,4.84-4.35,5.45ZM145.68,321.54c-2.2.42-12.48,2.42-12.42,5.07.01.76,1.08,2.83,1.53,3.65,3.87,7.08,13.89,11.52,21.79,10.35v-20.15c-3.77-.47-7.27.4-10.89,1.09ZM358.66,320.45c-.3.08-.67.24-.82.52l-.27,19.64c6.42.39,13.71-3.2,17.72-8.16.97-1.2.87-1.93,1.35-2.74.45-.76,2.18-1.97,2-3.56-.3-2.73-17.21-6.39-19.98-5.7ZM132.07,335.7c-.45-.59-1.76-4.34-2.45-4.35-6.63,7.52-9.79,16.87-8.98,26.94.06.69,1.18,9.06,2.71,7.36l1.64-5.99c.4-.04,3.6-5.83,4.37-6.8,2.93-3.7,6.55-6.14,10.51-8.55.97-.59,4.16-1.3,1.79-2.14-1.8-.64-2.29-1.33-2.62-1.48-1.51-.67.23,1.01-2.31-1.19-1.22-1.05-3.72-2.6-4.65-3.81ZM379.91,334.61c-.93,1.09-4.01,3.97-5.19,4.89-1.87,1.46-4.17,2.11-5.7,3.82,1.39.63,3.31,1.44,4.54,2.27,2.24,1.51,6.25,4.76,7.98,6.73,1.14,1.3,4.06,6.36,4.91,6.8l2.19,6.54c1.11,1.08,1.7-2.32,1.81-2.81,1.95-7.96.48-17.12-3.25-24.36-.6-1.17-3.79-6.39-4.55-6.89-1.53-1.01-2.09,2.25-2.74,3.01Z"/>
      <g>
        <g>
          <path class="cls-4" d="M113,297.57c1.38-.54,2.86-2.13,4.9-1.63-.97,5.7,3.25,12.51,7.67,16.02l8.12,5.21c-9.27,2.81-16.09,7.04-25.55,1.87-3.54-1.94-4.96-3.66-7.13-6.76,3.22-3.84,7.95-8.15,13.08-8.72l-1.09-5.99Z"/>
          <path class="cls-4" d="M98.29,317.73c2.47,2.92,7.74,5.5,11.23,7.03.35.15,1.15-.13.75.86s-3.34,2.5-4.35,3.82c-5.77,7.5-9.32,18.92-11.44,28.05l-.55.54c-.76.72-2.33-5.28-2.47-5.96-2.33-11.33.48-24.77,6.84-34.34Z"/>
          <path class="cls-4" d="M156.58,292.67c-10.76-2.61-22.18-6.44-29.41-15.25h11.71c1.44,0,7.71-1.89,9.51-2.47,2.81-.91,5.58-2.15,8.19-3.52v21.24Z"/>
          <path class="cls-8" d="M98.29,317.73c-6.36,9.58-9.17,23.01-6.84,34.34.14.68,1.71,6.68,2.47,5.96l.55-.54c-.3,1.28-.13,3.13-.81,4.35-9.14-14.15-8.07-35.36,1.63-49.01.52,0,2.47,4.27,3,4.89Z"/>
          <path class="cls-8" d="M113,297.57l1.09,5.99c-5.12.57-9.86,4.88-13.08,8.72-.73-1.05-3.17-3.49-2.48-4.89,1.16-2.34,9.49-7.99,12.08-9.22.94-.45,1.79-.36,2.38-.6Z"/>
          <g>
            <path class="cls-4" d="M94.48,271.43c.61-.14,3.53-1.41,3.81-1.09-.31,3.62.78,7.68,2.43,10.91,2.08,4.07,5.07,6.2,8.31,9.08.36.32,1.05-.03.7,1.24-6.51.62-11.25,3.05-17.86,1.25-5.51-1.5-9.06-5.25-11.01-10.51,4.23-3.19,9.33-5.29,14.71-5.45l-1.09-5.44Z"/>
            <path class="cls-4" d="M67.25,320.99c-.91-.13-1.51,1.34-1.64-.26-.47-5.71-.59-8.74.94-14.33,1.94-7.1,5.77-13.64,11.05-18.64,1.93,3.32,5.69,6.15,8.71,8.44-8.22,6.59-14.77,15.15-19.06,24.78Z"/>
            <path class="cls-4" d="M127.16,286.68l-8.94,2.16c-7.64-3.71-17.27-12.99-12.85-22.06l8.68,5.5c2.99,5.8,7.29,11.27,13.11,14.4Z"/>
            <path class="cls-8" d="M77.6,287.77c-5.28,5-9.11,11.54-11.05,18.64-1.53,5.59-1.4,8.62-.94,14.33.13,1.6.73.13,1.64.26-.9,2.02-.81,6.36-3.81,5.99-3.56-16.01-.19-33.44,11.71-45.21,1.03,1.66,1.51,4.38,2.45,5.99Z"/>
            <path class="cls-8" d="M94.48,271.43l1.09,5.44c-5.38.16-10.48,2.26-14.71,5.45-.56-1.52-1.64-2.44-1-4.52,3.73-4.19,9.39-5.18,14.61-6.37Z"/>
          </g>
          <g>
            <path class="cls-4" d="M132.07,335.7c.93,1.21,3.43,2.76,4.65,3.81,2.55,2.2.81.52,2.31,1.19.33.15.82.84,2.62,1.48,2.37.84-.82,1.55-1.79,2.14-3.96,2.41-7.58,4.86-10.51,8.55-.77.97-3.97,6.76-4.37,6.8-.04,0-.26-.52-.53-.56.69,2.52-1.64,1.59-1.64.83v-9.26c0-1.59,2.88-8.17,3.9-9.71s3.67-4.57,5.36-5.26Z"/>
            <path class="cls-8" d="M132.07,335.7c-1.68.7-4.35,3.75-5.36,5.26s-3.9,8.12-3.9,9.71v9.26c0,.76,2.33,1.69,1.64-.83.28.04.5.56.53.56l-1.64,5.99c-1.54,1.7-2.66-6.66-2.71-7.36-.81-10.07,2.35-19.42,8.98-26.94.69.01,2,3.76,2.45,4.35Z"/>
            <g>
              <path class="cls-4" d="M145.68,321.54c3.63-.69,7.12-1.56,10.89-1.09v20.15c-7.89,1.17-17.91-3.27-21.79-10.35,3.97-2.03,8.06-4.05,12.47-4.96-.12-1.45,1.11-4.39-1.58-3.76Z"/>
              <path class="cls-8" d="M145.68,321.54c2.69-.63,1.46,2.31,1.58,3.76-4.41.9-8.5,2.93-12.47,4.96-.45-.82-1.51-2.89-1.53-3.65-.05-2.65,10.22-4.65,12.42-5.07Z"/>
            </g>
          </g>
          <g>
            <path class="cls-4" d="M128.8,292.67c1.22-.9,3.73-.67,5.2-.56,7.3.52,15.97,4.45,22.58,7.37v13.89h-11.17c-.94,0-8.2-2.43-9.53-3-4-1.73-10.67-6.32-11.99-10.61,1.91-2.35,6.31-2.43,9.2-2.79l.66-2.88-1.13-.33,1.08-1.08c-1.62.04-3.28-.07-4.9,0Z"/>
            <path class="cls-8" d="M128.8,292.67c1.62-.07,3.27.04,4.9,0l-1.08,1.08,1.13.33-.66,2.88c-2.89.36-7.29.43-9.2,2.79-.67-2.18-.65-4.26-.51-6.51,1.81-.32,3.57-.5,5.42-.57Z"/>
          </g>
        </g>
        <g>
          <path class="cls-4" d="M93.39,226.76c3.72-4.97,3.87-11.55,6.27-17.42,8.55-20.87,29.8-30.33,51.49-25.91,5.9,1.2,12.91,3.49,17.4,7.38l-1.51.21c.1.16.42.26.42.34,0,.26.01.43-.28.54-3.56.72-17.75,4.76-19.05,7.64-.79,1.76-.43,4.02.81,5.43-5,1.56-17.9,5.87-13.63,12.81l-8.16,1.91c-.22,1.4.13.85.77,1.14,8.53,3.87,19.3,3.78,28.34,5.88l.31,3.88c-3.25-.11-16.87-1.76-19.09-.3-3.27,2.14,3.89,5.68,5.32,6.17,7.8,2.68,16.04,2.19,23.91.21.78-.2.71-1.06,1.13-1.16,1.96-.45,5.13-.39,7.24-.57,1.03,4.04-4.38,14.51-6.85,17.93-25.18,34.79-72.72,14.93-74.85-26.1Z"/>
          <path class="cls-8" d="M93.39,226.76c-1.72-33.12,24.6-56.19,57.31-48.32,7.26,1.75,15.9,5.81,20.04,12.1l-3.26.81c0-.08-.32-.19-.42-.34l1.51-.21c-4.49-3.89-11.51-6.17-17.4-7.38-21.69-4.42-42.94,5.04-51.49,25.91-2.4,5.87-2.55,12.45-6.27,17.42Z"/>
          <path class="cls-8" d="M156.58,230.57c.04.93.55,1.8,1.47,2.07,2.55.75,9.21.1,12.89.73,1.18.2,3.84.3,4.16,1.56-2.1.17-5.28.12-7.24.57-.43.1-.36.96-1.13,1.16-7.87,1.98-16.12,2.47-23.91-.21-1.43-.49-8.59-4.03-5.32-6.17,2.22-1.46,15.84.19,19.09.3Z"/>
          <path class="cls-4" d="M157.12,221.86c-2.29-.54-4.6-1.19-6.95-1.49-.88-.11-1.71.41-2.51.34-3.93-.36-4.23-1.18-5.72-4.67l.17-.72c4.39-3.6,13.47-4.06,13.93-10.89.9-.15.5.73.54,1.35.3,5.33-.09,10.75.54,16.08Z"/>
        </g>
      </g>
      <g>
        <path class="cls-4" d="M384.54,277.42c.25-.01.94-1.4.81.27-7.23,7.52-17.67,12.34-27.78,14.44v-19.61c2.36,1.14,4.67,2.13,7.21,2.87,1.8.52,7.36,2.04,8.86,2.04,3.61,0,7.29.17,10.89,0Z"/>
        <path class="cls-4" d="M412.59,318.27c7.69,10.67,8.44,25.06,5.44,37.58l-1.63-2.72c-3.36-9.93-6.61-20.31-14.7-27.51,3.7-2.33,7.8-4.17,10.88-7.35Z"/>
        <path class="cls-8" d="M412.59,318.27c.59-.61,4.07-5.66,4.35-5.45,6.67,12.58,9.11,25.92,5.29,39.88-.84,3.06-2.23,7.16-4.74,9.15l-1.09-8.72,1.63,2.72c3-12.52,2.25-26.92-5.44-37.58Z"/>
        <path class="cls-8" d="M410.96,312.82c-3.75-4.08-7.91-7.87-13.06-10.07l2.71-4.09c1.35.68,3.93,1.4,5.16,2.19,1.6,1.02,7.97,6.54,7.66,8.21-.21,1.14-1.72,2.81-2.47,3.77Z"/>
        <g>
          <path class="cls-4" d="M410.96,312.82c-8.71,11.19-20.4,9.9-32.14,4.35,1.91-1.96,4.57-2.63,6.79-4.36,5.28-4.12,9.37-10.42,8.46-17.42,1.85,1.06,4.34,1.17,6.18,2.15.5.27.3,1.09.36,1.11l-2.71,4.09c5.15,2.2,9.31,5.99,13.06,10.07Z"/>
          <path class="cls-4" d="M417.49,271.43l-1.09,5.44c5.03.29,11.17,1.69,14.71,5.45-4,12.55-17.11,12.81-27.79,9-.86-.69-.35-.55,0-1.1,1.14-1.74,4-3.65,5.44-5.46,3.32-4.16,5.05-9.05,4.92-14.42,1.4-.29,2.76.84,3.81,1.09Z"/>
          <path class="cls-4" d="M445.27,322.63c-4.62-9.83-11.09-19.06-19.6-25.89l5.99-5.42c.69-1.06,2.19-2.54,2.71-3.55,4.71,5.41,8.76,11.59,10.49,18.65,1.16,4.73,1.02,8.38.96,13.22-.01.92.35,2.42-.55,2.99Z"/>
          <path class="cls-4" d="M398.27,285.97c-5.95,4.05-6.84,2.46-13.18,1.8-.98-1.09,2.15-2.32,3.25-3.29,4.74-4.21,6.33-8.84,9.59-12.2,2.06-2.12,6.57-3.44,8.4-6.29,3.54,5.12.12,12.44-3.8,16.34-.67.67-3.72,3.27-4.26,3.64Z"/>
          <path class="cls-8" d="M434.38,287.77c.78-1.51,1.47-3.94,1.64-5.67l1.07-.32c2.38,3.66,5.43,6.9,7.39,10.87,3.96,8,5.91,18.64,5.14,27.52-.09,1.01-1.34,7.63-1.63,7.91-.79.76-.94-.19-1.21-.69-.72-1.33-.9-3.46-1.51-4.75.9-.57.54-2.07.55-2.99.06-4.84.2-8.49-.96-13.22-1.73-7.06-5.78-13.24-10.49-18.65Z"/>
          <path class="cls-8" d="M431.11,282.32c-3.54-3.76-9.67-5.16-14.71-5.45l1.09-5.44c2.52.6,4.64.74,7.22,1.76,1.34.53,5.86,2.79,6.69,3.65,1.55,1.61.28,3.66-.3,5.48Z"/>
        </g>
        <g>
          <path class="cls-4" d="M358.66,320.45c2.7,2.23,9.15-.62,5.45,4.9l12.53,4.36c-.48.81-.38,1.53-1.35,2.74-4,4.96-11.3,8.54-17.72,8.16l.27-19.64c.15-.28.52-.44.82-.52Z"/>
          <path class="cls-4" d="M379.91,334.61c.9.04,2.18,1.41,2.7,2.06,4.97,6.24,7.52,15.69,6.01,23.54-.88.23-.26-.88-.91-1.1-.45-.15-1.08.1-1.26,0-.85-.44-3.76-5.5-4.91-6.8-1.73-1.97-5.74-5.22-7.98-6.73-1.23-.83-3.15-1.64-4.54-2.27,1.54-1.71,3.83-2.36,5.7-3.82,1.17-.92,4.26-3.8,5.19-4.89Z"/>
          <path class="cls-8" d="M379.91,334.61c.65-.76,1.21-4.02,2.74-3.01.76.5,3.95,5.72,4.55,6.89,3.73,7.24,5.2,16.4,3.25,24.36-.12.48-.71,3.89-1.81,2.81l-2.19-6.54c.18.09.82-.16,1.26,0,.65.21.03,1.32.91,1.1,1.51-7.85-1.04-17.29-6.01-23.54-.52-.65-1.8-2.02-2.7-2.06Z"/>
          <path class="cls-8" d="M376.64,329.71l-12.53-4.36c3.7-5.52-2.75-2.67-5.45-4.9,2.77-.69,19.68,2.97,19.98,5.7.18,1.58-1.55,2.79-2,3.56Z"/>
        </g>
        <g>
          <path class="cls-4" d="M379.91,292.12c-.67,1.08-2.95,3.06-1.95,4.39.56.74,8.6,2.2,10.12,3.23-2.29,6.96-15.74,13.62-22.61,13.62h-7.9v-15.25c7.75-1.91,14.07-6.38,22.33-5.99Z"/>
          <path class="cls-8" d="M379.91,292.12c1.04.05,8.34,1.33,8.66,1.69.23,2.15.18,3.9-.49,5.94-1.53-1.03-9.57-2.5-10.12-3.23-1-1.33,1.28-3.31,1.95-4.39Z"/>
        </g>
      </g>
      <g>
        <path class="cls-7" d="M178.91,248.55c1.81-5.14,5.18-14.82-.03-18.76-1.07-.81-5.63-2.48-6.78-2.48h-8.44l.11-25.22c.6-2.03,8.17-5.29,9.96-5.29h133.18c.25,7.33-.33,14.75-.02,22.08.11,2.64.24,7.38.6,9.75,1.39,9.01,16.56,4.81,22.84,5.75-.03,3.72,1.13,7.37,2.18,10.9l-2.15-4.66c-.72-1.59-.38-3.32-.58-4.88-.09-.74-.38-1.73-1.08-.81-.82,12.47,6.39,29.12,16.08,37.02.88.71,4.86,4.24,5.16,1.94.22-1.66-.44-3.57.54-5.19l.56,94.52c-1.23,5.5-5.39,9.57-11.16,10.09h-165.09c-6.01-.55-10.52-4.58-11.14-10.65l.27-95.6c.17-.37.67-.39.81-.53l-.54,8.71c.82.16,1.27-.09,1.93-.51,1.66-1.08,5.71-5.91,7.01-7.7,4.69-6.47,8.09-14.78,8.49-22.83l-2.72,4.36ZM207.59,228.47c-2.59.87,1.85,7.56,3.3,7.99,5.89,1.74,1.88-9.73-3.3-7.99ZM217.93,228.46c-2.92.99,1.75,10.26,5.13,7.87,1.97-1.39-2.05-9.5-5.13-7.87ZM231.05,229.1c-1.11-.91-2.87-.7-4.21-.71-.48,2.74,1.91,8.73,5.16,8.2,2.99-.49.48-6.32-.95-7.5ZM237.55,228.47c-2.7.9,2.03,10.38,5.67,7.85,1.77-1.23-1.48-9.25-5.67-7.85ZM182.17,243.64v-1.63h-.53v1.63h.53ZM208.71,256.29c-3.52,1.91-2.48,6.24,1.51,6.43l96.45.02c4.39-.56,3.95-6.51-.56-6.58l-97.4.13ZM309.49,285.46c.94-1.93-.42-4.09-2.17-4.9l-97.64-.42c-5.08.39-4.62,7.35.53,7.12l97,.02c.37-.06,2.22-1.68,2.28-1.81ZM210.36,303.69c-4.56.29-5.54,5.97-.68,6.42l99.2-.5c1.25-.99,1.16-4.51-.32-5.23-.49-.24-6.64-.77-7.88-.84-29.56-1.57-60.6,1.11-90.31.15ZM208.17,328.71c-.7.21-1.42.91-1.37,1.71,1.04,2.42,2.91,7.76,6.43,6.1,2.69-1.27-1.34-8.91-5.05-7.8ZM217.58,328.62c-.59,1.97,1.21,7.51,3.11,8.08,6.22,1.89,2.03-10.24-3.11-8.08ZM227.75,328.68c-2.65.88,1.68,10.32,5.13,7.87,1.82-1.29-.93-9.27-5.13-7.87ZM239.53,336.08c.82.65,2.82,1.09,3.69.48,1.73-1.22-1.32-9.34-5.68-7.86-2.48.84.73,6.39,1.99,7.39Z"/>
        <path class="cls-9" d="M350.49,268.7c-.99,1.62-.32,3.53-.54,5.19-.3,2.3-4.29-1.22-5.16-1.94-9.69-7.9-16.91-24.55-16.08-37.02.7-.92.99.07,1.08.81.2,1.56-.14,3.29.58,4.88l2.15,4.66c.16.53.37,1.1.54,1.63l.54,1.09c.06.16-.06.39,0,.54l.54.54c.06.16-.06.39,0,.54l.54.54c.06.16-.06.39,0,.54.42,1.01.08,2.53,1.63,2.18.31.55.35,1.31.54,1.63l.54.54c.35.55.72,1.1,1.09,1.63l.54,1.09c.17.22.71.63,1.09,1.09,0,.81.32,1.37,1.09,1.63.86.98,2.8,2.87,3.81,3.81-.18,1.03.05,1.28,1.09,1.09.19.17.36.38.54.54l1.09.54c.67.55,2.69,1.38,2.72,2.18Z"/>
        <path class="cls-9" d="M178.91,248.55l2.72-4.36c-.4,8.05-3.8,16.36-8.49,22.83-1.29,1.79-5.34,6.62-7.01,7.7-.66.43-1.11.67-1.93.51l.54-8.71c.4-.4.97-.43,1.09-.54l1.09-1.09c1.67-1.7,3.09-3.31,4.9-4.9.49-.43,1.24-.71,1.62-1.36l-.53-.27c.69-.96,1.55-1.83,2.18-2.72.51-.73,1-1.1,1.63-2.18.08-.14-.08-.41,0-.54l.54-.54c.31-.59.78-1.95,1.09-2.72l.54-.54c.06-.16-.06-.38,0-.54Z"/>
        <path class="cls-7" d="M345.05,264.34c.42.39.98.99,1.09,1.09-1.04.19-1.26-.05-1.09-1.09Z"/>
        <path class="cls-7" d="M347.77,266.52l-1.09-.54c.07.07.63.17,1.09.54Z"/>
        <path class="cls-7" d="M341.23,260.53c-.77-.26-1.1-.83-1.09-1.63.47.57.81,1.32,1.09,1.63Z"/>
        <path class="cls-7" d="M333.61,248l-.54-1.09c.02.06.35.57.54,1.09Z"/>
        <path class="cls-7" d="M165.84,265.98c.35-.33.75-.74,1.09-1.09l-1.09,1.09Z"/>
        <path class="cls-7" d="M171.83,259.99c.37-.54.71-1.1,1.09-1.63l.53.27c-.38.65-1.13.93-1.62,1.36Z"/>
        <path class="cls-7" d="M334.7,250.18l-.54-.54s.4.19.54.54Z"/>
        <path class="cls-7" d="M178.37,249.64c.09-.23.49-.41.54-.54l-.54.54Z"/>
        <path class="cls-7" d="M334.15,249.09l-.54-.54c.03.08.42.24.54.54Z"/>
        <path class="cls-4" d="M309.49,285.46c-.06.13-1.91,1.75-2.28,1.81l-97-.02c-5.15.23-5.61-6.72-.53-7.12l97.64.42c1.75.82,3.11,2.98,2.17,4.9Z"/>
        <path class="cls-2" d="M208.71,256.29l97.4-.13c4.51.06,4.95,6.01.56,6.58l-96.45-.02c-3.98-.2-5.02-4.52-1.51-6.43Z"/>
        <path class="cls-2" d="M210.36,303.69c29.71.96,60.75-1.72,90.31-.15,1.23.07,7.39.6,7.88.84,1.48.72,1.57,4.24.32,5.23l-99.2.5c-4.86-.45-3.88-6.13.68-6.42Z"/>
        <path class="cls-2" d="M239.53,336.08c-1.25-1-4.47-6.54-1.99-7.39,4.35-1.47,7.4,6.64,5.68,7.86-.87.62-2.87.17-3.69-.48Z"/>
        <path class="cls-2" d="M237.55,228.47c4.19-1.4,7.44,6.62,5.67,7.85-3.64,2.53-8.37-6.95-5.67-7.85Z"/>
        <path class="cls-2" d="M208.17,328.71c3.71-1.11,7.74,6.54,5.05,7.8-3.52,1.66-5.39-3.68-6.43-6.1-.04-.8.68-1.5,1.37-1.71Z"/>
        <path class="cls-2" d="M207.59,228.47c5.18-1.74,9.19,9.73,3.3,7.99-1.46-.43-5.89-7.12-3.3-7.99Z"/>
        <path class="cls-2" d="M231.05,229.1c1.44,1.18,3.94,7.01.95,7.5-3.25.53-5.64-5.46-5.16-8.2,1.33,0,3.09-.21,4.21.71Z"/>
        <path class="cls-2" d="M227.75,328.68c4.2-1.4,6.95,6.58,5.13,7.87-3.45,2.45-7.78-6.99-5.13-7.87Z"/>
        <path class="cls-2" d="M217.58,328.62c5.14-2.16,9.33,9.97,3.11,8.08-1.9-.58-3.7-6.11-3.11-8.08Z"/>
        <path class="cls-2" d="M217.93,228.46c3.08-1.63,7.11,6.48,5.13,7.87-3.39,2.39-8.05-6.88-5.13-7.87Z"/>
        <rect class="cls-9" x="181.64" y="242.01" width=".53" height="1.63"/>
      </g>
      <g>
        <path class="cls-4" d="M191.44,145.05c1.42,2.12,3.55,4.54,6.22,2.68,2.29-1.59-1.32-6.02-2.12-8.14-.34-.88-2.16-6.79-1.92-7.07l9.8-2.73c.21,2.42,3.76,12.37,5.83,12.99,3.47,1.05,4.44-1.9,3.97-4.82,27.9-7.23,57.77-7.63,85.52.54-.35,2.48.13,4.43,3.01,4.4,3.56-.04,5.59-9.31,6.26-12.29.15-.65-.4-.99.78-.81l8.97,3.6c.76,3.13-5.55,11.32-4.62,13.27,1.66,3.45,5.34,1.08,6.84-1.08,1.93-1.08,4.6.63,6.52,1.38,11.67,4.58,26.68,13.9,35.16,23.12.62.67,1.36,1.12,1.35,2.19-9.7,1.78-22.98,8.02-28.23,16.71-7.43,12.29,13.24,10.6,20.05,12.99,1.41,1.16.84,3.13,1.35,4.65,1.48,4.47,12.42,6.29,13.67,8.7.62,1.2-.92,4.91-2.32,5.33-2.05.61-7.11-.01-9.69.12-2.04.1-4.83,1.45-6.66.69-3.06-2.77-6.33-5.32-9.43-8.04-4.36-3.83-21.44-21.19-25.05-22.37-.84-.27-1.41-.17-2.18-.25l-1.63-.54c-42.9.86-85.96-1.14-128.85-.03-2,.05-3.86.8-5.87.59-5.36-10.62-17.29-16.65-28.69-18.54,1.71-3.03,5.18-5.91,7.91-8.15,9.91-8.12,22.03-14.67,34.03-19.08ZM237.05,153.92c-1.38-1.42-4.57-1.74-5.79.18-3.72,5.87,7.13,13.91,11.77,15.89,11.32,4.84,29.28,3.14,37.18-7.25,2.09-2.75,4.1-8.43-.51-9.84-4.11-1.25-5.78,4.95-8.45,7.42-7.17,6.65-25.34,6.19-31.56-1.7-1.03-1.3-1.99-4.03-2.65-4.71ZM182.03,155.5c-2.59.74-2.85,4.57-.35,6.12,6.01,3.72,6.83-7.97.35-6.12ZM331.83,156.09c-3.46-3.27-8.63,2.88-4.53,5.34s7.52-2.51,4.53-5.34ZM168.96,160.4c-3.14.66-3.4,5.37-.67,5.89,7.33,1.4,5.66-6.94.67-5.89ZM339.2,161.53c-4.19,4.66,8.34,7.75,6.28.8-.77-2.61-4.82-2.41-6.28-.8ZM174.72,166.45c-4.87,5.77,5.68,9.46,6.41,3.4.54-4.49-4.06-6.19-6.41-3.4ZM333.47,165.29c-4.59.88-2.69,8.99,2.48,7.43,4.37-1.31,1.86-8.26-2.48-7.43Z"/>
        <path class="cls-8" d="M213.23,137.97c-.21-1.3-1.99-3.6-1.68-5.11,28.63-8.95,60.06-8.92,88.81-.31.73.83-1.46,4.87-1.61,5.97-27.75-8.18-57.61-7.78-85.52-.54Z"/>
        <path class="cls-7" d="M314,197.35l33.77,29.95c-9.82-.75-19.93,1.39-29.71.57-1.44-.12-3.02-.26-4.06-1.38v-29.14Z"/>
        <path class="cls-8" d="M319.99,145.6c.45-.65,2.19-4.93,2.48-4.92,3.01,1.34,6.2,2.46,9.16,3.91,8.46,4.13,17.09,9.45,24.57,15.2,4.68,3.6,9.2,7.52,13.37,11.69-2.07.52-4.45.43-6.53.81.01-1.07-.73-1.52-1.35-2.19-8.48-9.22-23.49-18.55-35.16-23.12-1.92-.75-4.59-2.46-6.52-1.38Z"/>
        <path class="cls-8" d="M149.5,172.29c-1.97-.33-4.03-.42-5.99-.81,2.09-1.89,3.88-4.15,5.97-6.02,8.74-7.83,21.79-16.47,32.51-21.41,1.12-.52,7.1-3.24,7.77-2.76.43,1.22.97,2.71,1.69,3.77-12,4.41-24.11,10.96-34.03,19.08-2.74,2.24-6.2,5.12-7.91,8.15Z"/>
        <g>
          <path class="cls-4" d="M418.58,226.76c-.62,15.03-7.41,28.49-19.98,36.94-25.65,17.23-58.51-.2-61.72-29.86,4.46-1.06,6.18,1.03,9.5,2.21,5.94,2.12,15.74,2.96,21.69.92,2.04-.7,8.89-3.67,6.14-6.43-2.09-2.11-16.57-.91-19.36.57.74-1.75.55-3.14,0-4.9,8.76-.4,17.52-1.7,25.88-4.35l4.07-2.19-8.17-1.1c3.15-8.87-7.54-10.63-13.37-13.6.45-1.73,1.34-3.16.74-5.08-1.4-4.5-18.66-5.83-22.78-7.46-.21-2.28.04-1.3,1.34-1.63,3.14-.8,6.39-3.29,9.57-4.61,23.79-9.89,51.39-.43,60.71,24.23,2.09,5.53,2.24,11.57,5.73,16.33Z"/>
          <path class="cls-8" d="M341.23,192.44c-.24-.1-.61.11-.78,0-.67-.15-.29-.72-.04-1.11,5.04-7.88,19.85-13.5,28.86-14.18,30.58-2.28,50.54,19.81,49.32,49.59-3.49-4.76-3.64-10.8-5.73-16.33-9.32-24.66-36.92-34.12-60.71-24.23-3.19,1.32-6.43,3.82-9.57,4.61-1.3.33-1.55-.65-1.34,1.63Z"/>
          <path class="cls-8" d="M336.88,233.84c.05-.72.79-.54,1.33-.57,2.88-.16,14.52-.25,15.88-1.03.39-.22.61-1.04.76-1.12,2.78-1.48,17.26-2.68,19.36-.57,2.74,2.76-4.11,5.73-6.14,6.43-5.95,2.03-15.75,1.2-21.69-.92-3.32-1.18-5.04-3.27-9.5-2.21Z"/>
        </g>
        <path class="cls-7" d="M336.33,252.91c-1.56.35-1.21-1.17-1.63-2.18.68.62,1.19,1.39,1.63,2.18Z"/>
        <path class="cls-1" d="M314.54,190.81c-.58-.05-1.38.19-1.63-.54l1.63.54Z"/>
        <path class="cls-7" d="M339.05,257.81l-.54-1.09c.32.45.45.96.54,1.09Z"/>
        <path class="cls-7" d="M175.1,255.63l1.63-2.18c-.63,1.08-1.12,1.45-1.63,2.18Z"/>
        <path class="cls-7" d="M337.42,255.08l-.54-.54c.1.17.41.32.54.54Z"/>
        <path class="cls-7" d="M176.73,252.91c.17-.29.5-.46.54-.54l-.54.54Z"/>
        <path class="cls-2" d="M237.05,153.92c.66.68,1.62,3.4,2.65,4.71,6.22,7.89,24.39,8.34,31.56,1.7,2.66-2.47,4.34-8.67,8.45-7.42,4.61,1.41,2.61,7.09.51,9.84-7.9,10.39-25.86,12.09-37.18,7.25-4.64-1.98-15.5-10.03-11.77-15.89,1.22-1.92,4.41-1.6,5.79-.18Z"/>
        <path class="cls-5" d="M174.72,166.45c2.35-2.79,6.95-1.08,6.41,3.4-.73,6.06-11.28,2.37-6.41-3.4Z"/>
        <path class="cls-5" d="M333.47,165.29c4.33-.83,6.84,6.12,2.48,7.43-5.17,1.55-7.07-6.56-2.48-7.43Z"/>
        <path class="cls-5" d="M331.83,156.09c3,2.83-.31,7.86-4.53,5.34s1.07-8.6,4.53-5.34Z"/>
        <path class="cls-5" d="M182.03,155.5c6.48-1.86,5.66,9.84-.35,6.12-2.5-1.55-2.24-5.38.35-6.12Z"/>
        <path class="cls-5" d="M339.2,161.53c1.45-1.62,5.51-1.81,6.28.8,2.06,6.96-10.47,3.86-6.28-.8Z"/>
        <path class="cls-5" d="M168.96,160.4c4.99-1.05,6.66,7.3-.67,5.89-2.73-.52-2.46-5.23.67-5.89Z"/>
      </g>
      <g>
        <g>
          <path class="cls-7" d="M184.77,79.29c36.17-4.9,36.13,51.23,0,46.02-25.29-3.65-24.33-42.72,0-46.02ZM186.95,85.28c-21.69,2.83-17.84,36.54,4.16,34.11,21.78-2.4,17.89-36.99-4.16-34.11Z"/>
          <path class="cls-2" d="M186.95,85.28c22.05-2.88,25.94,31.71,4.16,34.11-22,2.43-25.86-31.28-4.16-34.11ZM199.44,100.22c6.24-5.53-4.69-13.86-9.35-7.45-4.21,5.79,4.42,11.82,9.35,7.45Z"/>
          <path class="cls-7" d="M199.44,100.22c-4.94,4.37-13.57-1.65-9.35-7.45,4.67-6.41,15.6,1.92,9.35,7.45Z"/>
        </g>
        <g>
          <path class="cls-7" d="M317.13,79.29c36.62-4.97,35.78,52.05-.33,45.8-25.54-4.42-23.33-42.59.33-45.8ZM319.87,85.29c-21.95,2.13-19.01,35.88,3.11,34.16,22.12-1.73,18.8-36.29-3.11-34.16Z"/>
          <path class="cls-2" d="M319.87,85.29c21.91-2.13,25.23,32.43,3.11,34.16-22.12,1.73-25.06-32.03-3.11-34.16ZM326.39,90.7c-7.3,1.2-6.01,12.48,3.01,10.65,6.91-1.4,4.52-11.89-3.01-10.65Z"/>
          <path class="cls-7" d="M326.39,90.7c7.52-1.24,9.91,9.24,3.01,10.65-9.02,1.83-10.31-9.45-3.01-10.65Z"/>
        </g>
      </g>
    </g>
  </g>
  <g>
    <path d="M159.49,430.64c2.1,0,3.84.26,5.23.78,1.39.52,2.73,1.29,4.01,2.32l-1.87,2.14c-1.07-.91-2.2-1.55-3.37-1.91-1.18-.36-2.4-.54-3.66-.54-1.92,0-3.71.44-5.36,1.32-1.66.88-2.99,2.35-4,4.4-1.01,2.06-1.51,4.87-1.51,8.44s.48,6.24,1.44,8.3c.96,2.06,2.25,3.55,3.88,4.46s3.43,1.37,5.41,1.37,3.47-.27,4.69-.82c1.22-.54,2.27-1.18,3.13-1.9l1.73,2.21c-.93.9-2.17,1.68-3.73,2.34-1.56.66-3.48,1-5.77,1-2.58,0-4.92-.65-7.04-1.96-2.12-1.3-3.8-3.22-5.05-5.74-1.25-2.52-1.87-5.61-1.87-9.28s.64-6.82,1.91-9.34c1.27-2.51,2.95-4.41,5.04-5.69,2.09-1.28,4.35-1.92,6.78-1.92Z"/>
    <path d="M176.6,464.07v-2.5h4.1v-20.18h-4.1v-2.52h6.38l.55,6.05c.99-2.05,2.18-3.65,3.56-4.81s3.25-1.74,5.6-1.74c.66,0,1.24.05,1.76.14.52.1,1.07.22,1.64.36l-.84,2.81c-.56-.16-1.05-.28-1.48-.35-.42-.07-.91-.11-1.45-.11-2.03,0-3.76.69-5.18,2.08-1.42,1.38-2.58,3.57-3.48,6.56v11.71h5.18v2.5h-12.26ZM192.89,446.79v-4.92l.19-3h3.02l-.34,7.92h-2.88Z"/>
    <path d="M222.27,459.11c0,1.02.18,1.77.53,2.24.35.47.9.82,1.63,1.04l-.82,2.18c-.96-.14-1.82-.5-2.57-1.06-.75-.56-1.28-1.42-1.58-2.57-.88,1.17-1.98,2.06-3.3,2.68-1.32.62-2.81.92-4.48.92-2.5,0-4.46-.7-5.88-2.11-1.42-1.41-2.14-3.29-2.14-5.64,0-2.56,1-4.52,2.99-5.88,1.99-1.36,4.89-2.04,8.7-2.04h3.82v-2.45c0-1.97-.56-3.35-1.69-4.14s-2.67-1.19-4.62-1.19c-.85,0-1.81.1-2.88.29-1.07.19-2.26.52-3.58.98l-.86-2.45c1.52-.56,2.9-.95,4.14-1.18,1.24-.22,2.44-.34,3.61-.34,2.96,0,5.2.72,6.71,2.17,1.51,1.45,2.27,3.36,2.27,5.75v12.77ZM212.26,462.18c1.38,0,2.66-.34,3.86-1.01,1.2-.67,2.22-1.61,3.05-2.81v-7.2h-4.18c-2.99,0-5.08.52-6.26,1.57-1.18,1.05-1.78,2.44-1.78,4.16s.43,3.06,1.3,3.95c.86.89,2.2,1.33,4.01,1.33Z"/>
    <path d="M236.93,442.35c.96-1.26,2.06-2.24,3.3-2.92,1.24-.68,2.61-1.02,4.12-1.02,2.27,0,4.1.54,5.5,1.63,1.39,1.09,2.4,2.61,3.04,4.57s.95,4.24.95,6.85-.38,4.78-1.14,6.74c-.76,1.97-1.88,3.52-3.35,4.64-1.47,1.13-3.29,1.69-5.45,1.69-3.01,0-5.36-1.06-7.06-3.19l-.29,2.71h-2.59v-35.4l2.98-.41v14.09ZM243.24,461.96c2.34,0,4.12-.88,5.36-2.63,1.24-1.75,1.86-4.39,1.86-7.91,0-2.24-.24-4.14-.73-5.69-.49-1.55-1.22-2.74-2.18-3.55-.97-.82-2.18-1.22-3.64-1.22-1.57,0-2.94.47-4.13,1.4-1.18.94-2.14,1.93-2.86,2.99v13.06c.72,1.07,1.64,1.93,2.75,2.58,1.11.65,2.3.97,3.56.97Z"/>
    <path d="M282.77,431.1l1.87,32.98h-3.14l-1.22-18.17c-.06-1.1-.12-2.28-.18-3.53-.06-1.25-.1-2.45-.13-3.61s-.06-2.16-.08-3.01c-.02-.85-.04-1.42-.06-1.7l-6.12,24.02h-3.65l-6.55-24.02c0,.29,0,.88-.01,1.78,0,.9-.01,1.94-.01,3.13s-.02,2.4-.05,3.62c-.03,1.22-.07,2.31-.12,3.25l-1.08,18.24h-3.07l1.87-32.98h5.11l5.86,22.97,5.59-22.97h5.18Z"/>
    <path d="M308.67,459.11c0,1.02.18,1.77.53,2.24.35.47.9.82,1.63,1.04l-.82,2.18c-.96-.14-1.82-.5-2.57-1.06-.75-.56-1.28-1.42-1.58-2.57-.88,1.17-1.98,2.06-3.3,2.68-1.32.62-2.81.92-4.48.92-2.5,0-4.46-.7-5.88-2.11-1.42-1.41-2.14-3.29-2.14-5.64,0-2.56,1-4.52,2.99-5.88,1.99-1.36,4.89-2.04,8.7-2.04h3.82v-2.45c0-1.97-.56-3.35-1.69-4.14s-2.67-1.19-4.62-1.19c-.85,0-1.81.1-2.88.29-1.07.19-2.26.52-3.58.98l-.86-2.45c1.52-.56,2.9-.95,4.14-1.18,1.24-.22,2.44-.34,3.61-.34,2.96,0,5.2.72,6.71,2.17,1.51,1.45,2.27,3.36,2.27,5.75v12.77ZM298.66,462.18c1.38,0,2.66-.34,3.86-1.01,1.2-.67,2.22-1.61,3.05-2.81v-7.2h-4.18c-2.99,0-5.08.52-6.26,1.57-1.18,1.05-1.78,2.44-1.78,4.16s.43,3.06,1.3,3.95c.86.89,2.2,1.33,4.01,1.33Z"/>
    <path d="M320.6,464.07v-2.5h4.1v-20.18h-4.1v-2.52h6.38l.55,6.05c.99-2.05,2.18-3.65,3.56-4.81s3.25-1.74,5.6-1.74c.66,0,1.24.05,1.76.14.52.1,1.07.22,1.64.36l-.84,2.81c-.56-.16-1.05-.28-1.48-.35-.42-.07-.91-.11-1.45-.11-2.03,0-3.76.69-5.18,2.08-1.42,1.38-2.58,3.57-3.48,6.56v11.71h5.18v2.5h-12.26ZM336.89,446.79v-4.92l.19-3h3.02l-.34,7.92h-2.88Z"/>
    <path d="M352.47,428.27v35.81h-2.98v-35.4l2.98-.41ZM369.43,438.87l-12.26,11.4,13.75,13.8h-4.3l-13.66-13.75,12.02-11.45h4.44Z"/>
  </g>
</svg>